Coordinates
version=1
nRows=14
nColumns=42
inDegrees=yes

Units are S.I. units (second, meters, Newtons, ...)
If the header above contains a line with 'inDegrees', this indicates whether rotational values are in degrees (yes) or radians (no).

endheader
time	pelvis_tilt	pelvis_list	pelvis_rotation	pelvis_tx	pelvis_ty	pelvis_tz	hip_flexion_r	hip_adduction_r	hip_rotation_r	knee_angle_r	knee_adduction_r	knee_angle_r_beta	ankle_angle_r	subtalar_angle_r	mtp_angle_r	hip_flexion_l	hip_adduction_l	hip_rotation_l	knee_angle_l	knee_adduction_l	knee_angle_l_beta	ankle_angle_l	subtalar_angle_l	mtp_angle_l	lumbar_extension	lumbar_bending	lumbar_rotation	arm_flex_r	arm_add_r	arm_rot_r	elbow_flex_r	pro_sup_r	wrist_flex_r	wrist_dev_r	arm_flex_l	arm_add_l	arm_rot_l	elbow_flex_l	pro_sup_l	wrist_flex_l	wrist_dev_l
      2.63000000	     22.03903443	      1.63238620	     -0.10674453	      1.04395776	      0.90336549	     -0.11551497	    -20.62736283	     -0.10454889	    -27.64717777	     27.00786014	     -3.17665960	      0.47137608	     30.68192706	     18.37060469	     -7.50034479	      8.46048187	      2.05225607	     -6.55482659	     25.89095100	     -1.81283297	      0.45188234	      8.98371312	     -4.38643281	     -7.50034479	    -43.56187828	     -1.24015203	      0.63511152	     25.75438803	     -9.44202428	      0.06800365	     38.12675699	     90.00000001	      0.00000000	      0.00000000	      7.61516952	     -3.41514671	    -33.95992199	     36.60663477	     90.00000001	      0.00000000	      0.00000000
      2.64000000	     21.96656548	      1.46140642	     -0.26752841	      1.05159851	      0.90229406	     -0.11549901	    -21.24167766	      0.02604738	    -27.55789061	     26.73141215	     -3.13782209	      0.46655116	     30.93749571	     18.39987974	     -7.50033837	      8.64803771	      1.79182981	     -7.34762126	     23.87140409	     -1.54241490	      0.41663460	      8.76845910	     -3.48957465	     -7.50033837	    -43.47639524	     -1.14087601	      0.66140640	     26.27489621	     -9.32900436	      0.19665012	     38.38408203	     90.00000001	      0.00000000	      0.00000000	      7.48088824	     -3.38879223	    -34.00400409	     36.55516480	     90.00000001	      0.00000000	      0.00000000
      2.65000000	     21.93065861	      1.30740834	     -0.41764501	      1.05939166	      0.90123541	     -0.11555651	    -21.93878007	      0.11690334	    -27.47413287	     26.41978228	     -3.03066257	      0.46111219	     31.16061080	     18.58662648	     -7.50033271	      8.78946595	      1.53268117	     -8.27426837	     22.11667931	     -1.25834173	      0.38600887	      8.67509529	     -2.35683405	     -7.50033271	    -43.42437197	     -1.05164962	      0.64965346	     26.76322860	     -9.22657719	      0.36036544	     38.56025106	     90.00000001	      0.00000000	      0.00000000	      7.33529918	     -3.36748027	    -34.09369357	     36.45892149	     90.00000001	      0.00000000	      0.00000000
      2.66000000	     21.97339379	      1.16712039	     -0.53345927	      1.06738971	      0.90022125	     -0.11582890	    -22.78912543	      0.11921000	    -27.40334224	     26.09077027	     -2.72924580	      0.45536985	     31.36152318	     19.02934572	     -7.50032437	      8.87797123	      1.31463846	     -9.43025352	     20.71691360	     -1.09566976	      0.36157835	      8.78711979	     -0.39510050	     -7.50032437	    -43.42162181	     -0.94373902	      0.62247325	     27.20577261	     -9.18003386	      0.65622060	     38.64353664	     90.00000001	      0.00000000	      0.00000000	      7.21335157	     -3.29389325	    -34.30828752	     36.31782512	     90.00000001	      0.00000000	      0.00000000
      2.67000000	     21.94525195	      0.96494389	     -0.67412356	      1.07559683	      0.89899742	     -0.11602101	    -23.47195094	      0.22355607	    -27.66435684	     25.86390801	     -2.78926358	      0.45141035	     31.55747651	     19.57179537	     -7.50030026	      9.32666468	      0.84735830	    -11.63723655	     20.19003205	     -1.02543519	      0.35238254	      9.76376780	      2.79277471	     -7.50030026	    -43.32707121	     -0.80476011	      0.62329911	     27.58141049	     -9.20094166	      1.33713104	     38.77231145	     90.00000001	      0.00000000	      0.00000000	      7.10527077	     -3.19127746	    -34.91544959	     36.16009410	     90.00000001	      0.00000000	      0.00000000
      2.68000000	     21.92048900	      0.81865611	     -0.76978030	      1.08378011	      0.89788136	     -0.11637319	    -24.18686093	      0.27637805	    -27.67871949	     25.62716337	     -2.68824288	      0.44727838	     31.67655568	     19.76380822	     -7.50029573	      9.50594507	      0.67373966	    -12.31766786	     19.48079796	     -0.79382823	      0.34000407	      9.73050295	      2.96908439	     -7.50029573	    -43.25832037	     -0.69392956	      0.59395096	     27.92556527	     -9.11963533	      1.42886659	     38.91139779	     90.00000001	      0.00000000	      0.00000000	      6.96655351	     -3.14942103	    -35.01409566	     36.03751377	     90.00000001	      0.00000000	      0.00000000
      2.69000000	     21.90778296	      0.66384064	     -0.86160026	      1.09216455	      0.89674642	     -0.11679161	    -24.90494449	      0.32610024	    -27.79387900	     25.41869190	     -2.64462610	      0.44363987	     31.74070758	     20.12580328	     -7.50028227	      9.73178017	      0.47156394	    -13.23028240	     19.21245108	     -0.66387823	      0.33532053	      9.94343760	      3.56537256	     -7.50028227	    -43.18025097	     -0.57362547	      0.58235094	     28.19833410	     -9.10057840	      1.69620351	     39.04338478	     90.00000001	      0.00000000	      0.00000000	      6.85645575	     -3.08679474	    -35.29374599	     35.86919336	     90.00000001	      0.00000000	      0.00000000
      2.70000000	     21.85215327	      0.52908147	     -0.91072557	      1.10066048	      0.89558292	     -0.11736068	    -25.54124983	      0.32507160	    -27.97537597	     25.34054492	     -2.57453149	      0.44227594	     31.80212970	     20.14841003	     -7.50028162	      9.93158059	      0.40838765	    -13.55078418	     19.09116630	     -0.58333879	      0.33320371	     10.01796751	      3.42690378	     -7.50028162	    -43.05181996	     -0.45023801	      0.58775178	     28.42423375	     -9.07713640	      1.71374312	     39.12530733	     90.00000001	      0.00000000	      0.00000000	      6.71407678	     -3.01961808	    -35.32606960	     35.77898651	     90.00000001	      0.00000000	      0.00000000
      2.71000000	     21.88761820	      0.39646527	     -0.98325644	      1.10938169	      0.89448644	     -0.11791101	    -26.31663745	      0.34056339	    -28.02038839	     25.18281360	     -2.50808213	      0.43952301	     31.76327946	     20.33501168	     -7.50027932	     10.08464848	      0.30326847	    -14.12083292	     19.41693258	     -0.57281723	      0.33888940	     10.19719955	      3.01683174	     -7.50027932	    -42.99323059	     -0.35133269	      0.50415295	     28.62251873	     -8.96460444	      1.77718984	     39.25660592	     90.00000001	      0.00000000	      0.00000000	      6.51710470	     -3.01741367	    -35.39948266	     35.64029652	     90.00000001	      0.00000000	      0.00000000
      2.72000000	     21.88841905	      0.25349722	     -1.03025857	      1.11829019	      0.89338188	     -0.11858079	    -27.03476992	      0.35599034	    -28.10886548	     25.09487765	     -2.46760035	      0.43798824	     31.68546133	     20.53679434	     -7.50027686	     10.24481105	      0.24306821	    -14.44966380	     19.95677111	     -0.62532691	      0.34831136	     10.35337990	      2.59129214	     -7.50027686	    -42.88786663	     -0.23064316	      0.51062074	     28.71696783	     -8.96514427	      1.82919119	     39.33287177	     90.00000001	      0.00000000	      0.00000000	      6.37481168	     -2.96436633	    -35.47263305	     35.51596360	     90.00000001	      0.00000000	      0.00000000
      2.73000000	     21.85255088	      0.09746880	     -1.06187543	      1.12739318	      0.89223016	     -0.11929590	    -27.68244376	      0.38677918	    -28.24069432	     25.07245638	     -2.48678127	      0.43759692	     31.55190796	     20.79446435	     -7.50027369	     10.42898133	      0.16738619	    -14.71189680	     20.72424748	     -0.70172395	      0.36170635	     10.51095662	      1.98716004	     -7.50027369	    -42.71798932	     -0.10657486	      0.52576644	     28.74510387	     -8.96658619	      1.89174110	     39.41873608	     90.00000001	      0.00000000	      0.00000000	      6.21284956	     -2.90844131	    -35.57277100	     35.35821229	     90.00000001	      0.00000000	      0.00000000
      2.74000000	     21.76299361	     -0.07310086	     -1.11283872	      1.13665952	      0.89103782	     -0.12005956	    -28.20974723	      0.40946665	    -28.42558218	     25.16570182	     -2.60404640	      0.43922436	     31.38348099	     21.13283582	     -7.50026912	     10.62586881	      0.11023590	    -14.78667355	     21.62138721	     -0.79647847	      0.37736440	     10.56765333	      1.20211040	     -7.50026912	    -42.48238285	      0.03098022	      0.58125748	     28.68150488	     -9.00698292	      1.95430036	     39.51101546	     90.00000001	      0.00000000	      0.00000000	      6.05945123	     -2.83283382	    -35.71261805	     35.16177893	     90.00000001	      0.00000000	      0.00000000
      2.75000000	     21.62569731	     -0.21397921	     -1.12823955	      1.14612604	      0.88979958	     -0.12091906	    -28.65400981	      0.38162131	    -28.68034608	     25.37272059	     -2.73030871	      0.44283751	     31.20058772	     21.43614921	     -7.50026472	     10.82546771	      0.11699699	    -14.68882339	     22.59984425	     -0.89333929	      0.39444169	     10.50880077	      0.36130037	     -7.50026472	    -42.16663437	      0.15316704	      0.66243792	     28.55762006	     -9.03660443	      1.98130536	     39.59069448	     90.00000001	      0.00000000	      0.00000000	      5.90053760	     -2.76962081	    -35.85159607	     34.96168928	     90.00000001	      0.00000000	      0.00000000
      2.76000000	     21.45961617	     -0.34428413	     -1.14837727	      1.15569632	      0.88859532	     -0.12186401	    -29.03553890	      0.27906611	    -28.91054935	     25.68667318	     -2.77193002	      0.44831702	     31.00670848	     21.63875911	     -7.50026198	     11.00498778	      0.17904608	    -14.40788299	     23.62146778	     -1.00953364	      0.41227239	     10.36465786	     -0.25546892	     -7.50026198	    -41.83307576	      0.25209796	      0.67564567	     28.33983638	     -9.13787364	      1.95106494	     39.59452490	     90.00000001	      0.00000000	      0.00000000	      5.78526409	     -2.68234614	    -35.93622911	     34.81082416	     90.00000001	      0.00000000	      0.00000000
